<svg width="20" height="20" viewBox="0 0 20 20" fill="none" xmlns="http://www.w3.org/2000/svg">
<rect width="20" height="20" rx="10" fill="#767680" fill-opacity="0.12"/>
<path d="M10.0003 2.66699C10.6934 2.66699 11.2629 3.19578 11.3276 3.87192L11.3337 4.00033L11.3333 8.66633L16.0003 8.66699C16.7367 8.66699 17.3337 9.26395 17.3337 10.0003C17.3337 10.6934 16.8049 11.2629 16.1287 11.3276L16.0003 11.3337L11.3333 11.3333L11.3337 16.0003C11.3337 16.7367 10.7367 17.3337 10.0003 17.3337C9.30726 17.3337 8.7377 16.8049 8.6731 16.1287L8.66699 16.0003L8.66633 11.3333L4.00033 11.3337C3.26395 11.3337 2.66699 10.7367 2.66699 10.0003C2.66699 9.30726 3.19578 8.7377 3.87192 8.6731L4.00033 8.66699L8.66633 8.66633L8.66699 4.00033C8.66699 3.26395 9.26395 2.66699 10.0003 2.66699Z" fill="#3C3C43" fill-opacity="0.6"/>
</svg>
