<svg width="40" height="40" viewBox="0 0 40 40" fill="none" xmlns="http://www.w3.org/2000/svg">
<g clip-path="url(#clip0_1004_69)">
<path d="M20 3.33333C10.8 3.33333 3.33331 10.8 3.33331 20C3.33331 29.2 10.8 36.6667 20 36.6667C29.2 36.6667 36.6666 29.2 36.6666 20C36.6666 10.8 29.2 3.33333 20 3.33333ZM26.0166 13.9C27.8 13.9 29.2333 15.3333 29.2333 17.1167C29.2333 18.9 27.8 20.3333 26.0166 20.3333C24.2333 20.3333 22.8 18.9 22.8 17.1167C22.7833 15.3333 24.2333 13.9 26.0166 13.9ZM16.0166 11.2667C18.1833 11.2667 19.95 13.0333 19.95 15.2C19.95 17.3667 18.1833 19.1333 16.0166 19.1333C13.85 19.1333 12.0833 17.3667 12.0833 15.2C12.0833 13.0167 13.8333 11.2667 16.0166 11.2667ZM16.0166 26.4833V32.7333C12.0166 31.4833 8.84998 28.4 7.44998 24.4667C9.19998 22.6 13.5666 21.65 16.0166 21.65C16.9 21.65 18.0166 21.7833 19.1833 22.0167C16.45 23.4667 16.0166 25.3833 16.0166 26.4833ZM20 33.3333C19.55 33.3333 19.1166 33.3167 18.6833 33.2667V26.4833C18.6833 24.1167 23.5833 22.9333 26.0166 22.9333C27.8 22.9333 30.8833 23.5833 32.4166 24.85C30.4666 29.8 25.65 33.3333 20 33.3333Z" fill="#323232"/>
</g>
<defs>
<clipPath id="clip0_1004_69">
<rect width="40" height="40" fill="white"/>
</clipPath>
</defs>
</svg>
