<svg width="40" height="40" viewBox="0 0 40 40" fill="none" xmlns="http://www.w3.org/2000/svg">
<g clip-path="url(#clip0_1004_53)">
<path d="M20 3.33333C10.8 3.33333 3.33331 10.8 3.33331 20C3.33331 29.2 10.8 36.6667 20 36.6667C29.2 36.6667 36.6666 29.2 36.6666 20C36.6666 10.8 29.2 3.33333 20 3.33333ZM32.4333 15.2L27.8 17.1167C26.95 14.85 25.1666 13.05 22.8833 12.2167L24.8 7.58333C28.3 8.91667 31.0833 11.7 32.4333 15.2ZM20 25C17.2333 25 15 22.7667 15 20C15 17.2333 17.2333 15 20 15C22.7666 15 25 17.2333 25 20C25 22.7667 22.7666 25 20 25ZM15.2166 7.56667L17.1666 12.2C14.8666 13.0333 13.05 14.85 12.2 17.15L7.56665 15.2167C8.91665 11.7 11.7 8.91667 15.2166 7.56667ZM7.56665 24.7833L12.2 22.8667C13.05 25.1667 14.85 26.9667 17.15 27.8L15.2 32.4333C11.7 31.0833 8.91665 28.3 7.56665 24.7833ZM24.8 32.4333L22.8833 27.8C25.1666 26.95 26.9666 25.15 27.8 22.85L32.4333 24.8C31.0833 28.3 28.3 31.0833 24.8 32.4333Z" fill="#323232"/>
</g>
<defs>
<clipPath id="clip0_1004_53">
<rect width="40" height="40" fill="white"/>
</clipPath>
</defs>
</svg>
