<svg width="40" height="40" viewBox="0 0 40 40" fill="none" xmlns="http://www.w3.org/2000/svg">
<g clip-path="url(#clip0_1004_60)">
<path d="M16.6667 31.6667V23.3333H23.3333V31.6667C23.3333 32.5833 24.0833 33.3333 25 33.3333H30C30.9167 33.3333 31.6667 32.5833 31.6667 31.6667V20H34.5C35.2667 20 35.6333 19.05 35.05 18.55L21.1167 6C20.4833 5.43333 19.5167 5.43333 18.8833 6L4.95001 18.55C4.38334 19.05 4.73334 20 5.50001 20H8.33334V31.6667C8.33334 32.5833 9.08334 33.3333 10 33.3333H15C15.9167 33.3333 16.6667 32.5833 16.6667 31.6667Z" fill="#323232"/>
</g>
<defs>
<clipPath id="clip0_1004_60">
<rect width="40" height="40" fill="white"/>
</clipPath>
</defs>
</svg>
