<svg height="32" viewBox="0 0 34 32" width="34" xmlns="http://www.w3.org/2000/svg"><path d="m8.4 4.267h-6.4c-1.179 0-2.133.956-2.133 2.133v23.467c0 1.179.954 2.133 2.133 2.133h6.4c1.179 0 2.133-.954 2.133-2.133v-23.467c0-1.177-.954-2.133-2.133-2.133zm-5.333 21.333c-.59 0-1.067-.477-1.067-1.067s.477-1.067 1.067-1.067 1.067.477 1.067 1.067-.477 1.067-1.067 1.067zm5.333-12.8h-6.4v-2.133h6.4zm0-4.267h-6.4v-2.133h6.4zm13.867 19.2v-2.133h-6.4v2.133c-1.179 0-2.133.954-2.133 2.133h10.667c0-1.179-.954-2.133-2.133-2.133zm9.6-27.733h-25.6c-1.179 0-2.133.956-2.133 2.133h27.733v17.067h-19.2v4.267h19.2c1.179 0 2.133-.954 2.133-2.133v-19.2c0-1.177-.954-2.133-2.133-2.133zm-12.8 22.4c-.59 0-1.067-.477-1.067-1.067s.477-1.067 1.067-1.067 1.067.477 1.067 1.067-.477 1.067-1.067 1.067z"/></svg>