<svg height="32" viewBox="0 0 32 32" width="32" xmlns="http://www.w3.org/2000/svg"><path d="m12.215 3.668v23.127l5.004 1.537v-19.306c0-.512.064-.886.276-1.103.212-.295.409-.325.709-.197.724.212 1.064.867 1.064 1.931v7.762c1.62.768 3.073.847 4.137.039 1.108-.768 1.694-2.132 1.694-4.176 0-2.132-.399-3.777-1.34-4.846-.852-1.147-2.354-2.068-4.57-2.837-2.768-.896-5.097-1.537-6.974-1.931zm-1.536 13.987-.985.315-6.186 2.206-1.064.433c-1.62.68-2.487 1.409-2.443 2.049.084.936 1.152 1.615 3.073 2.128 2.492.67 5.019.822 7.604.433v-2.64l-.985.355-1.103.433-1.773.355-1.694-.197c-.34-.217-.453-.458-.236-.67.212-.128.527-.305.867-.433l1.143-.394 3.782-1.34zm14.341 1.221c-.463-.02-.931.02-1.379.039-1.655.034-3.354.305-5.122.867v3.113l5.319-1.852s.685-.182 1.182-.315c.763-.202 1.576.079 1.576.079.468.039.704.217.788.433.084.256-.227.453-.867.67l-1.576.63-6.422 2.285v3.034l10.204-3.625.867-.394c1.709-.64 2.487-1.315 2.403-2.167-.044-.813-1.015-1.453-2.719-2.009-1.438-.483-2.871-.734-4.255-.788z"/></svg>