<svg height="32" viewBox="0 0 32 32" width="32" xmlns="http://www.w3.org/2000/svg"><path d="m8.238 4.376c-.013.008-.026.021-.038.034.081-.085.196-.174.268-.225 2.193-1.424 4.727-2.185 7.537-2.185 2.627 0 5.088.727 7.188 1.989.153.089.57.374.782.633-2.028-2.236-7.987 2.563-7.987 2.563-2.057-1.59-3.953-2.674-5.364-3.061-1.182-.323-1.998-.051-2.385.251zm18.032 2.113c-.06-.068-.127-.132-.191-.204-.51-.561-1.139-.697-1.709-.663-.519.166-2.908 1.024-5.849 3.804 0 0 3.311 3.222 5.343 6.517 2.028 3.294 3.239 5.883 2.495 9.475 2.261-2.487 3.639-5.79 3.639-9.42 0-3.668-1.411-7.014-3.728-9.509zm-5.059 10.861c-.897-1.012-2.236-2.453-4-4.213-.387-.383-.795-.782-1.224-1.199 0 0-.646.646-1.484 1.496v-.004c-1.075 1.088-2.47 2.504-3.243 3.333-1.377 1.471-5.326 6.087-5.547 8.676 0 0-.88-2.053 1.05-6.789 1.258-3.099 5.063-7.745 6.652-9.262 0 0-1.454-1.594-3.273-2.699l-.013-.004s-.021-.017-.051-.034c-.876-.523-1.836-.927-2.755-.982-.939.068-1.534.757-1.534.757-2.351 2.504-3.787 5.87-3.787 9.577 0 7.732 6.266 13.998 14.002 13.998 4.102 0 7.792-1.768 10.355-4.582 0-.004-.293-1.849-2.176-4.497-.446-.621-2.062-2.555-2.971-3.571z"/></svg>