<svg xmlns="http://www.w3.org/2000/svg" width="24" height="24" fill="none" stroke="white" viewBox="0 0 24 24">
  <path stroke-linecap="round" stroke-linejoin="round" stroke-width="2"
    d="M19 11H5" />
  <path stroke-linecap="round" stroke-linejoin="round" stroke-width="2"
    d="M19 11a2 2 0 012 2v6a2 2 0 01-2 2H5a2 2 0 01-2-2v-6a2 2 0 012-2" />
  <path stroke-linecap="round" stroke-linejoin="round" stroke-width="2"
    d="M19 11V9a2 2 0 00-2-2" />
  <path stroke-linecap="round" stroke-linejoin="round" stroke-width="2"
    d="M5 11V9a2 2 0 012-2V5a2 2 0 012-2h6a2 2 0 012 2v2" />
  <path stroke-linecap="round" stroke-linejoin="round" stroke-width="2"
    d="M7 7h10" />
</svg>