<svg width="40" height="40" viewBox="0 0 40 40" fill="none" xmlns="http://www.w3.org/2000/svg">
<g clip-path="url(#clip0_1004_29)">
<path d="M20 20C23.6833 20 26.6666 17.0167 26.6666 13.3333C26.6666 9.65 23.6833 6.66667 20 6.66667C16.3166 6.66667 13.3333 9.65 13.3333 13.3333C13.3333 17.0167 16.3166 20 20 20ZM20 10C21.8333 10 23.3333 11.5 23.3333 13.3333C23.3333 15.1667 21.8333 16.6667 20 16.6667C18.1666 16.6667 16.6666 15.1667 16.6666 13.3333C16.6666 11.5 18.1666 10 20 10ZM20 21.6667C15.55 21.6667 6.66663 23.9 6.66663 28.3333V31.6667C6.66663 32.5833 7.41663 33.3333 8.33329 33.3333H31.6666C32.5833 33.3333 33.3333 32.5833 33.3333 31.6667V28.3333C33.3333 23.9 24.45 21.6667 20 21.6667ZM30 30H9.99996V28.35C10.3333 27.15 15.5 25 20 25C24.5 25 29.6666 27.15 30 28.3333V30Z" fill="#323232"/>
</g>
<defs>
<clipPath id="clip0_1004_29">
<rect width="40" height="40" fill="white"/>
</clipPath>
</defs>
</svg>
