<svg width="40" height="40" viewBox="0 0 40 40" fill="none" xmlns="http://www.w3.org/2000/svg">
<g clip-path="url(#clip0_1004_64)">
<path d="M18.3333 16.6667C18.3333 15.75 19.0833 15 20 15C20.9167 15 21.6667 15.75 21.6667 16.6667V28.3333H18.3333V16.6667ZM33.3333 21.6667C32.4167 21.6667 31.6667 22.4167 31.6667 23.3333V31.6667H8.33333V8.33333H16.6667C17.5833 8.33333 18.3333 7.58333 18.3333 6.66667C18.3333 5.75 17.5833 5 16.6667 5H8.33333C6.5 5 5 6.5 5 8.33333V31.6667C5 33.5 6.5 35 8.33333 35H31.6667C33.5 35 35 33.5 35 31.6667V23.3333C35 22.4167 34.25 21.6667 33.3333 21.6667ZM35 8.33333H31.6667V5C31.6667 4.08333 30.9167 3.33333 30 3.33333C29.0833 3.33333 28.3333 4.08333 28.3333 5V8.33333H25C24.0833 8.33333 23.3333 9.08333 23.3333 10C23.3333 10.9167 24.0833 11.6667 25 11.6667H28.3333V15C28.3333 15.9167 29.0833 16.6667 30 16.6667C30.9167 16.6667 31.6667 15.9167 31.6667 15V11.6667H35C35.9167 11.6667 36.6667 10.9167 36.6667 10C36.6667 9.08333 35.9167 8.33333 35 8.33333ZM26.6667 21.6667C25.75 21.6667 25 22.4167 25 23.3333V28.3333H28.3333V23.3333C28.3333 22.4167 27.5833 21.6667 26.6667 21.6667ZM11.6667 20V28.3333H15V20C15 19.0833 14.25 18.3333 13.3333 18.3333C12.4167 18.3333 11.6667 19.0833 11.6667 20Z" fill="#323232"/>
</g>
<defs>
<clipPath id="clip0_1004_64">
<rect width="40" height="40" fill="white"/>
</clipPath>
</defs>
</svg>
