<svg width="40" height="40" viewBox="0 0 40 40" fill="none" xmlns="http://www.w3.org/2000/svg">
<g clip-path="url(#clip0_1004_39)">
<path d="M27.5 20C29.8 20 31.65 18.1333 31.65 15.8333C31.65 13.5333 29.8 11.6667 27.5 11.6667C25.2 11.6667 23.3334 13.5333 23.3334 15.8333C23.3334 18.1333 25.2 20 27.5 20ZM15 18.3333C17.7667 18.3333 19.9834 16.1 19.9834 13.3333C19.9834 10.5667 17.7667 8.33333 15 8.33333C12.2334 8.33333 10 10.5667 10 13.3333C10 16.1 12.2334 18.3333 15 18.3333ZM27.5 23.3333C24.45 23.3333 18.3334 24.8667 18.3334 27.9167V30C18.3334 30.9167 19.0834 31.6667 20 31.6667H35C35.9167 31.6667 36.6667 30.9167 36.6667 30V27.9167C36.6667 24.8667 30.55 23.3333 27.5 23.3333ZM15 21.6667C11.1167 21.6667 3.33337 23.6167 3.33337 27.5V30C3.33337 30.9167 4.08337 31.6667 5.00004 31.6667H15V27.9167C15 26.5 15.55 24.0167 18.95 22.1333C17.5 21.8333 16.1 21.6667 15 21.6667Z" fill="#323232"/>
</g>
<defs>
<clipPath id="clip0_1004_39">
<rect width="40" height="40" fill="white"/>
</clipPath>
</defs>
</svg>
